<svg width="180" height="150" viewBox="0 0 180 150" fill="none" xmlns="http://www.w3.org/2000/svg">
<g filter="url(#filter0_d_1_1551)">
<path d="M89.9745 141.764C123.203 141.764 150.141 115.261 150.141 82.5673C150.141 49.8739 123.203 23.3707 89.9745 23.3707C56.7456 23.3707 29.8082 49.8739 29.8082 82.5673C29.8082 115.261 56.7456 141.764 89.9745 141.764Z" fill="#A4CE60"/>
<path d="M73.5848 82.5673C82.6366 82.5673 89.9745 75.3476 89.9745 66.4417C89.9745 57.5358 82.6366 50.3161 73.5848 50.3161C64.533 50.3161 57.1951 57.5358 57.1951 66.4417C57.1951 75.3476 64.533 82.5673 73.5848 82.5673Z" fill="white"/>
<path d="M106.372 82.5673C115.423 82.5673 122.761 75.3476 122.761 66.4417C122.761 57.5358 115.423 50.3161 106.372 50.3161C97.3199 50.3161 89.9819 57.5358 89.9819 66.4417C89.9819 75.3476 97.3199 82.5673 106.372 82.5673Z" fill="white"/>
<path d="M67.6442 67.4554C69.2665 67.4554 70.5816 66.1615 70.5816 64.5653C70.5816 62.9691 69.2665 61.6752 67.6442 61.6752C66.0219 61.6752 64.7068 62.9691 64.7068 64.5653C64.7068 66.1615 66.0219 67.4554 67.6442 67.4554Z" fill="#231815"/>
<path d="M103.434 67.4554C105.056 67.4554 106.372 66.1615 106.372 64.5653C106.372 62.9691 105.056 61.6752 103.434 61.6752C101.812 61.6752 100.497 62.9691 100.497 64.5653C100.497 66.1615 101.812 67.4554 103.434 67.4554Z" fill="#231815"/>
<path d="M31.3793 79.9935C31.3793 79.9935 20.9083 79.8641 16.378 74.0192C11.8476 68.1743 15.0262 64.5941 9.01977 64.5509C2.65533 64.5078 4.77437 75.1336 4.77437 75.1336C4.77437 75.1336 7.07609 86.4351 14.1493 90.3317C21.2225 94.2283 32.1466 88.0239 32.1466 88.0239L31.372 79.9935H31.3793Z" fill="#A4CE60"/>
<path d="M148.577 79.9935C148.577 79.9935 159.048 79.8641 163.578 74.0192C168.109 68.1743 164.93 64.5941 170.937 64.5509C177.301 64.5078 175.182 75.1336 175.182 75.1336C175.182 75.1336 172.88 86.4351 165.807 90.3317C158.734 94.2283 147.81 88.0239 147.81 88.0239L148.584 79.9935H148.577Z" fill="#A4CE60"/>
<path d="M120.343 26.3471C120.343 27.4973 119.853 28.5326 119.057 29.2803C118.26 30.028 117.157 30.4953 115.944 30.4953H64.0126C61.5794 30.4953 59.6138 28.6404 59.6138 26.3471C59.6138 25.1968 60.1033 24.1615 60.8998 23.4138C61.6963 22.6661 62.7923 22.1988 64.0126 22.1988H66.2559C66.9793 9.86921 77.3261 0.0845947 89.9892 0.0845947C102.652 0.0845947 112.984 9.86921 113.715 22.1988H115.958C118.392 22.1988 120.357 24.0537 120.357 26.3471H120.343Z" fill="#439C4A"/>
<path d="M109.002 90.3533C109.002 100.691 100.482 109.067 89.9819 109.067C79.4817 109.067 70.9617 100.684 70.9617 90.3533C70.9617 89.0233 71.1005 87.7292 71.3709 86.4783C76.5223 88.9082 82.9745 90.3533 89.9819 90.3533C96.9894 90.3533 103.441 88.9082 108.593 86.4783C108.863 87.7292 109.002 89.0233 109.002 90.3533Z" fill="#040000"/>
</g>
<defs>
<filter id="filter0_d_1_1551" x="0.435791" y="0.0845947" width="179.085" height="149.679" filterUnits="userSpaceOnUse" color-interpolation-filters="sRGB">
<feFlood flood-opacity="0" result="BackgroundImageFix"/>
<feColorMatrix in="SourceAlpha" type="matrix" values="0 0 0 0 0 0 0 0 0 0 0 0 0 0 0 0 0 0 127 0" result="hardAlpha"/>
<feOffset dy="4"/>
<feGaussianBlur stdDeviation="2"/>
<feComposite in2="hardAlpha" operator="out"/>
<feColorMatrix type="matrix" values="0 0 0 0 0 0 0 0 0 0 0 0 0 0 0 0 0 0 0.2 0"/>
<feBlend mode="normal" in2="BackgroundImageFix" result="effect1_dropShadow_1_1551"/>
<feBlend mode="normal" in="SourceGraphic" in2="effect1_dropShadow_1_1551" result="shape"/>
</filter>
</defs>
</svg>
