<svg id="Layer_1" xmlns="http://www.w3.org/2000/svg" viewBox="0 0 122.88 122.88"><defs><style>.cls-1{fill:red;}.cls-1,.cls-2{fill-rule:evenodd;}.cls-2{fill:#fff;}</style></defs><title>youtube-square-color</title><path class="cls-1" d="M25.2,0H97.68a25.27,25.27,0,0,1,25.2,25.2V97.68a25.27,25.27,0,0,1-25.2,25.2H25.2A25.27,25.27,0,0,1,0,97.68V25.2A25.27,25.27,0,0,1,25.2,0Z"/><path class="cls-2" d="M96.74,46.63s-.7-5-2.87-7.15a10.28,10.28,0,0,0-7.22-3c-10.08-.74-25.21-.74-25.21-.74h0s-15.13,0-25.21.74a10.31,10.31,0,0,0-7.22,3c-2.17,2.18-2.86,7.15-2.86,7.15A109.09,109.09,0,0,0,25.4,58.3v5.46a109.65,109.65,0,0,0,.72,11.68s.71,5,2.86,7.15c2.74,2.87,6.34,2.77,8,3.08,5.77.55,24.51.72,24.51.72s15.15,0,25.23-.75a10.32,10.32,0,0,0,7.22-3c2.17-2.19,2.87-7.16,2.87-7.16a110.6,110.6,0,0,0,.71-11.67V58.3a110.89,110.89,0,0,0-.73-11.67Z"/><polygon class="cls-1" points="53.97 70.39 53.97 50.14 73.44 60.3 53.97 70.39 53.97 70.39"/></svg>